<?xml version="1.0" encoding="UTF-8" standalone="no"?>
<!-- Created with Inkscape (http://www.inkscape.org/) -->
<svg
   xmlns:dc="http://purl.org/dc/elements/1.1/"
   xmlns:cc="http://creativecommons.org/ns#"
   xmlns:rdf="http://www.w3.org/1999/02/22-rdf-syntax-ns#"
   xmlns:svg="http://www.w3.org/2000/svg"
   xmlns="http://www.w3.org/2000/svg"
   xmlns:sodipodi="http://sodipodi.sourceforge.net/DTD/sodipodi-0.dtd"
   xmlns:inkscape="http://www.inkscape.org/namespaces/inkscape"
   id="svg2403"
   sodipodi:version="0.32"
   inkscape:version="0.46"
   width="68.745514"
   height="27.106894"
   xml:space="preserve"
   sodipodi:docname="liftweb-logo-single-small.svg"
   inkscape:output_extension="org.inkscape.output.svg.inkscape"
   version="1.0"
   inkscape:export-filename="/home/dpp/Desktop/images_books/liftweb-logo-single-small.png"
   inkscape:export-xdpi="90"
   inkscape:export-ydpi="90"><metadata
     id="metadata2408"><rdf:RDF><cc:Work
         rdf:about=""><dc:format>image/svg+xml</dc:format><dc:type
           rdf:resource="http://purl.org/dc/dcmitype/StillImage" /></cc:Work></rdf:RDF></metadata><defs
     id="defs2406"><inkscape:perspective
       sodipodi:type="inkscape:persp3d"
       inkscape:vp_x="0 : 526.18109 : 1"
       inkscape:vp_y="0 : 1000 : 0"
       inkscape:vp_z="744.09448 : 526.18109 : 1"
       inkscape:persp3d-origin="372.04724 : 350.78739 : 1"
       id="perspective2410" /><clipPath
       clipPathUnits="userSpaceOnUse"
       id="clipPath2424"><path
         d="M 0,612 L 792,612 L 792,0 L 0,0 L 0,612 z"
         id="path2426" /></clipPath></defs><sodipodi:namedview
     inkscape:window-height="1125"
     inkscape:window-width="1920"
     inkscape:pageshadow="2"
     inkscape:pageopacity="0.0"
     guidetolerance="10.0"
     gridtolerance="10.0"
     objecttolerance="10.0"
     borderopacity="1.0"
     bordercolor="#666666"
     pagecolor="#ffffff"
     id="base"
     showgrid="false"
     inkscape:zoom="6"
     inkscape:cx="66.04481"
     inkscape:cy="30.416667"
     inkscape:window-x="0"
     inkscape:window-y="25"
     inkscape:current-layer="g2412" /><g
     id="g2412"
     inkscape:groupmode="layer"
     inkscape:label="liftweb-logo-single"
     transform="matrix(1.25,0,0,-1.25,-825.68473,433.186)"><path
       id="path2478"
       style="fill:#25336d;fill-opacity:1;fill-rule:nonzero;stroke:none"
       d="M 684.67616,341.03471 C 684.93188,342.91044 685.07362,344.07567 685.10256,344.72947 C 685.58567,344.81511 686.35285,344.9285 687.06333,344.9285 C 687.348,344.9285 687.43304,344.70112 687.23402,343.28015 L 685.32934,328.69835 C 685.86975,328.55662 687.31906,328.49992 688.74063,328.49992 C 690.24724,328.49992 691.75324,328.52827 692.49269,328.64226 L 692.52103,328.58496 C 692.40704,327.95952 691.86724,327.27738 691.29849,327.05001 C 690.84373,326.93662 690.04821,326.90827 688.11518,326.90827 C 685.52897,326.90827 683.93672,327.05001 683.22684,327.19234 C 683.0839,327.33469 682.97051,327.53311 682.85652,327.7038 L 684.67616,341.03471 z" /><path
       id="path2482"
       style="fill:#25336d;fill-opacity:1;fill-rule:nonzero;stroke:none"
       d="M 698.00653,339.73926 C 698.26226,339.73926 698.31955,339.56858 698.20616,338.6874 C 697.52342,333.71342 697.15371,330.92395 696.86964,328.90589 C 696.78398,328.36549 696.69894,328.1948 696.47157,328.05307 C 696.21585,327.91072 695.24964,327.68336 694.4529,327.6544 C 694.70924,329.36065 695.07895,331.46797 695.41972,334.05479 C 695.81838,337.09575 696.01742,338.6874 696.01742,339.28449 C 696.38653,339.42623 697.69411,339.73926 697.97818,339.73926 L 698.00653,339.73926 z" /><path
       id="path2486"
       style="fill:#25336d;fill-opacity:1;fill-rule:nonzero;stroke:none"
       d="M 697.83627,344.98947 C 698.40441,344.98947 698.94421,344.70541 698.97316,343.76754 C 699.0015,342.71569 698.17703,342.26093 697.60889,342.26093 C 697.04015,342.26093 696.50034,342.57396 696.47139,343.45512 C 696.44304,344.67706 697.38151,344.98947 697.80732,344.98947 L 697.83627,344.98947 z" /><path
       id="path2490"
       style="fill:#25336d;fill-opacity:1;fill-rule:nonzero;stroke:none"
       d="M 700.10981,337.68042 C 700.16651,338.24917 700.50727,339.15869 700.99037,339.21538 C 701.3034,339.21538 701.81545,339.18703 702.32691,339.21538 C 703.20748,345.63929 705.51021,346.5488 707.47219,346.5488 C 708.32441,346.5488 709.03489,346.23638 709.29061,345.98006 C 709.31957,345.49694 709.03489,344.72977 708.52344,344.75812 C 708.29606,344.84316 707.86964,344.95655 707.52827,344.95655 C 705.87932,344.95655 705.0838,343.3655 704.51566,339.21538 C 705.99332,339.21538 707.10247,339.18703 707.69897,339.30102 C 707.52827,338.64724 707.3009,338.16353 706.87449,337.9078 C 706.56207,337.70877 705.85098,337.68042 704.31662,337.68042 C 703.80457,333.5876 703.82387,334.90242 703.39806,332.11718 C 702.57298,326.5461 700.61222,325.04009 698.22444,325.04009 C 697.45727,325.04009 696.49105,325.32355 696.20637,325.63658 C 695.72328,326.09134 695.979,326.9725 696.31976,327.19988 C 696.80347,326.94416 697.45727,326.71618 698.0254,326.71618 C 699.98617,326.71618 700.7256,328.36513 701.3794,332.97 C 701.8625,336.21 701.8438,335.12256 702.15622,337.68042 L 700.10981,337.68042 z" /><path
       id="path2494"
       style="fill:#25336d;fill-opacity:1;fill-rule:nonzero;stroke:none"
       d="M 714.17932,330.23349 C 714.43504,329.66534 714.26436,328.75583 713.75291,328.21544 C 712.95678,327.36261 711.84824,326.73777 710.45622,326.73777 C 708.92065,326.73777 708.01113,327.76067 708.4659,330.97232 C 708.75057,332.96204 709.12029,335.00845 709.5461,337.68031 L 707.64142,337.68031 C 707.64142,338.2207 708.01113,339.21587 708.55154,339.21587 L 709.80182,339.21587 C 710.17154,341.11994 710.51291,342.14344 710.82473,342.39917 C 711.2234,342.71158 712.04727,342.96792 712.61601,342.96792 C 712.41698,341.80207 712.1896,340.63684 711.96223,339.21587 C 713.8669,339.21587 714.80477,339.21587 715.5442,339.32925 C 715.40126,338.67546 715.11718,338.1634 714.71973,337.90828 C 714.37835,337.70925 713.58223,337.68031 711.67815,337.68031 C 711.25175,335.12244 710.76863,331.76846 710.6263,330.74555 C 710.42727,329.18164 710.68359,328.55619 711.39407,328.55619 C 712.21795,328.55619 713.21251,329.18164 714.12262,330.23349 L 714.17932,330.23349 z" /><g
       id="g2422"
       transform="matrix(0.7789376,0,0,0.7789376,146.0223,76.591924)"><path
         d="M 677.7342,333.25659 C 677.7342,331.58132 676.3756,329.65 674.70102,328.94312 L 663.58026,324.24761 C 661.90568,323.54005 660.54776,324.32457 660.54776,325.99983 L 660.54776,337.12127 C 660.54776,338.79586 661.90568,340.7265 663.58026,341.43406 L 674.70102,346.12956 C 676.3756,346.83644 677.7342,346.05193 677.7342,344.37666 L 677.7342,333.25659 z"
         style="fill:#4861b4;fill-opacity:1;fill-rule:nonzero;stroke:none"
         id="path2498" /><path
         d="M 680.11069,341.09384 L 680.11069,330.01054 C 680.11069,328.33595 678.75278,326.40463 677.07751,325.69775 L 665.95675,321.00225 C 665.38199,320.75913 664.84536,320.69511 664.38704,320.78024 L 664.38704,320.74278 C 664.38704,319.06888 665.74496,318.28369 667.41954,318.99057 L 678.54098,323.68607 C 680.21557,324.39364 681.57348,326.32428 681.57348,327.99954 L 681.57348,339.1203 C 681.57348,340.22012 680.98646,340.93176 680.11069,341.09384"
         style="fill:#25336d;fill-opacity:1;fill-rule:nonzero;stroke:none"
         id="path2502" /><path
         d="M 675.88406,323.26413 C 674.45191,323.26413 673.23768,323.77352 672.24002,324.79502 C 671.24303,325.81584 670.74454,327.043 670.74454,328.47651 L 670.74454,336.03087 L 673.44607,337.17154 L 668.60074,341.27935 L 664.19262,333.26532 L 667.08007,334.48431 L 667.08007,328.47992 C 667.08007,326.07666 667.94562,324.03093 669.67536,322.34477 C 670.31823,321.71893 671.0074,321.20954 671.74288,320.81592 L 677.54093,323.26413 L 675.88406,323.26413 z"
         style="fill:#ffffff;fill-opacity:1;fill-rule:nonzero;stroke:none"
         id="path2506" /></g></g></svg>