<?xml version="1.0" encoding="UTF-8" standalone="no"?>
<!-- Created with Inkscape (http://www.inkscape.org/) -->
<svg
   xmlns:dc="http://purl.org/dc/elements/1.1/"
   xmlns:cc="http://creativecommons.org/ns#"
   xmlns:rdf="http://www.w3.org/1999/02/22-rdf-syntax-ns#"
   xmlns:svg="http://www.w3.org/2000/svg"
   xmlns="http://www.w3.org/2000/svg"
   xmlns:sodipodi="http://sodipodi.sourceforge.net/DTD/sodipodi-0.dtd"
   xmlns:inkscape="http://www.inkscape.org/namespaces/inkscape"
   id="svg2403"
   sodipodi:version="0.32"
   inkscape:version="0.46"
   width="385.93375"
   height="478.31613"
   xml:space="preserve"
   sodipodi:docname="liftweb-logo-plain-big.svg"
   inkscape:output_extension="org.inkscape.output.svg.inkscape"
   version="1.0"><metadata
     id="metadata2408"><rdf:RDF><cc:Work
         rdf:about=""><dc:format>image/svg+xml</dc:format><dc:type
           rdf:resource="http://purl.org/dc/dcmitype/StillImage" /></cc:Work></rdf:RDF></metadata><defs
     id="defs2406"><inkscape:perspective
       sodipodi:type="inkscape:persp3d"
       inkscape:vp_x="0 : 526.18109 : 1"
       inkscape:vp_y="0 : 1000 : 0"
       inkscape:vp_z="744.09448 : 526.18109 : 1"
       inkscape:persp3d-origin="372.04724 : 350.78739 : 1"
       id="perspective2410" /><clipPath
       clipPathUnits="userSpaceOnUse"
       id="clipPath2424"><path
         d="M 0,612 L 792,612 L 792,0 L 0,0 L 0,612 z"
         id="path2426" /></clipPath></defs><sodipodi:namedview
     inkscape:window-height="1125"
     inkscape:window-width="1920"
     inkscape:pageshadow="2"
     inkscape:pageopacity="0.0"
     guidetolerance="10.0"
     gridtolerance="10.0"
     objecttolerance="10.0"
     borderopacity="1.0"
     bordercolor="#666666"
     pagecolor="#ffffff"
     id="base"
     showgrid="false"
     inkscape:zoom="1"
     inkscape:cx="754.069"
     inkscape:cy="234.19026"
     inkscape:window-x="0"
     inkscape:window-y="49"
     inkscape:current-layer="g2412" /><g
     id="g2412"
     inkscape:groupmode="layer"
     inkscape:label="liftweb-logo-single"
     transform="matrix(1.25,0,0,-1.25,-294.58625,640.36734)"><path
       id="path2498"
       style="fill:#4861b4;fill-opacity:1;fill-rule:nonzero;stroke:none"
       d="M 488.039,319.4473 C 488.039,294.8473 468.089,266.4873 443.499,256.1073 L 280.199,187.1573 C 255.609,176.7673 235.669,188.2873 235.669,212.8873 L 235.669,376.1973 C 235.669,400.7873 255.609,429.1373 280.199,439.5273 L 443.499,508.4773 C 468.089,518.8573 488.039,507.3373 488.039,482.7373 L 488.039,319.4473 z" /><path
       id="path2502"
       style="fill:#25336d;fill-opacity:1;fill-rule:nonzero;stroke:none"
       d="M 522.936,458.0263 L 522.936,295.2763 C 522.936,270.6863 502.996,242.3263 478.396,231.9463 L 315.096,162.9963 C 306.656,159.4263 298.776,158.4863 292.046,159.7363 L 292.046,159.1863 C 292.046,134.6063 311.986,123.0763 336.576,133.4563 L 499.886,202.4063 C 524.476,212.7963 544.416,241.1463 544.416,265.7463 L 544.416,429.0463 C 544.416,445.1963 535.796,455.6463 522.936,458.0263" /><path
       id="path2506"
       style="fill:#ffffff;fill-opacity:1;fill-rule:nonzero;stroke:none"
       d="M 460.871,196.2103 C 439.841,196.2103 422.011,203.6903 407.361,218.6903 C 392.721,233.6803 385.401,251.7003 385.401,272.7503 L 385.401,383.6803 L 425.071,400.4303 L 353.921,460.7503 L 289.191,343.0703 L 331.591,360.9703 L 331.591,272.8003 C 331.591,237.5103 344.301,207.4703 369.701,182.7103 C 379.141,173.5203 389.261,166.0403 400.061,160.2603 L 485.201,196.2103 L 460.871,196.2103 z" /></g></svg>