<?xml version="1.0" encoding="UTF-8" standalone="no"?>
<!-- Created with Inkscape (http://www.inkscape.org/) -->
<svg
   xmlns:dc="http://purl.org/dc/elements/1.1/"
   xmlns:cc="http://creativecommons.org/ns#"
   xmlns:rdf="http://www.w3.org/1999/02/22-rdf-syntax-ns#"
   xmlns:svg="http://www.w3.org/2000/svg"
   xmlns="http://www.w3.org/2000/svg"
   xmlns:sodipodi="http://sodipodi.sourceforge.net/DTD/sodipodi-0.dtd"
   xmlns:inkscape="http://www.inkscape.org/namespaces/inkscape"
   id="svg2403"
   sodipodi:version="0.32"
   inkscape:version="0.46"
   width="569.90936"
   height="256.97437"
   xml:space="preserve"
   sodipodi:docname="liftweb-logo-single-medium.svg"
   inkscape:output_extension="org.inkscape.output.svg.inkscape"
   version="1.0"><metadata
     id="metadata2408"><rdf:RDF><cc:Work
         rdf:about=""><dc:format>image/svg+xml</dc:format><dc:type
           rdf:resource="http://purl.org/dc/dcmitype/StillImage" /></cc:Work></rdf:RDF></metadata><defs
     id="defs2406"><inkscape:perspective
       sodipodi:type="inkscape:persp3d"
       inkscape:vp_x="0 : 526.18109 : 1"
       inkscape:vp_y="0 : 1000 : 0"
       inkscape:vp_z="744.09448 : 526.18109 : 1"
       inkscape:persp3d-origin="372.04724 : 350.78739 : 1"
       id="perspective2410" /><clipPath
       clipPathUnits="userSpaceOnUse"
       id="clipPath2424"><path
         d="M 0,612 L 792,612 L 792,0 L 0,0 L 0,612 z"
         id="path2426" /></clipPath></defs><sodipodi:namedview
     inkscape:window-height="1125"
     inkscape:window-width="1920"
     inkscape:pageshadow="2"
     inkscape:pageopacity="0.0"
     guidetolerance="10.0"
     gridtolerance="10.0"
     objecttolerance="10.0"
     borderopacity="1.0"
     bordercolor="#666666"
     pagecolor="#ffffff"
     id="base"
     showgrid="false"
     inkscape:zoom="0.49104635"
     inkscape:cx="178.84424"
     inkscape:cy="-5.8097375"
     inkscape:window-x="0"
     inkscape:window-y="49"
     inkscape:current-layer="g2412"
     showborder="true"
     inkscape:showpageshadow="true" /><g
     id="g2412"
     inkscape:groupmode="layer"
     inkscape:label="liftweb-logo-single"
     transform="matrix(1.25,0,0,-1.25,-579.54094,544.17319)"><g
       id="g3726"
       transform="matrix(0.5,0,0,0.5,345.79825,166.2744)"><path
         d="M 634.948,170.8733 C 635.558,170.8733 635.828,170.2633 636.238,169.2433 C 638.148,163.1133 642.178,148.9933 645.778,135.5633 C 651.378,152.8733 655.758,165.9033 657.238,170.8733 C 657.778,170.8733 659.348,170.7433 660.648,170.4033 C 661.748,170.1233 662.018,169.5133 661.468,167.7433 C 657.448,155.5333 652.398,141.5633 648.298,130.3633 C 647.758,128.9433 647.428,128.3233 646.808,127.9133 C 646.258,127.5733 644.138,127.1633 642.848,127.1633 C 641.148,133.3733 637.328,147.2833 633.238,161.2633 C 631.128,154.0333 625.738,136.4433 624.028,130.5733 C 623.548,128.9433 623.148,128.2533 622.328,127.8533 C 621.498,127.5133 619.948,127.1633 618.648,127.1633 C 614.348,140.8733 609.778,156.4933 604.738,169.5833 C 605.888,170.2033 608.558,170.8733 609.778,170.8733 C 610.798,170.8733 611.148,170.2033 612.298,166.3133 C 614.688,158.5433 618.378,146.8133 621.378,135.7533 C 623.278,142.5133 627.108,155.4633 630.988,168.0133 C 630.918,168.5733 630.778,169.4433 630.658,169.9133 C 631.948,170.4733 633.378,170.8733 634.878,170.8733 L 634.948,170.8733 z"
         style="fill:#25336d;fill-opacity:1;fill-rule:nonzero;stroke:none"
         id="path2430" /><path
         d="M 668.014,161.0633 C 668.014,164.3233 668.014,167.0733 667.804,169.6533 C 669.164,170.0733 671.224,170.4733 673.134,170.6133 L 690.454,170.6133 C 690.244,168.8233 689.634,167.6133 688.824,166.9133 C 687.934,166.4433 686.424,166.4433 683.434,166.4433 L 674.014,166.4433 L 674.014,151.9933 L 689.894,151.9933 C 689.274,148.3133 687.934,147.8333 685.674,147.8333 L 674.014,147.8333 L 674.014,132.2833 C 675.454,131.8733 678.984,131.7333 682.264,131.7333 C 685.324,131.7333 689.764,131.8133 692.424,132.0833 L 692.494,131.9433 C 692.004,129.9033 690.924,128.4633 689.364,127.8533 C 688.474,127.7133 685.944,127.5733 681.104,127.5733 C 675.514,127.5733 670.674,127.8533 668.974,128.2533 L 668.014,129.5733 L 668.014,161.0633 z"
         style="fill:#25336d;fill-opacity:1;fill-rule:nonzero;stroke:none"
         id="path2434" /><path
         d="M 704.499,131.6103 C 705.379,131.3203 707.289,131.1203 708.919,131.1203 C 714.579,131.1203 719.089,134.0703 719.089,140.3203 C 719.089,145.6503 714.989,148.3603 708.379,148.3603 C 707.079,148.3603 705.519,148.3103 704.499,148.1103 L 704.499,131.6103 z M 704.499,151.7803 C 706.469,152.1203 709.529,152.2603 712.679,152.1203 C 714.659,152.8703 716.769,155.6703 716.769,159.6203 C 716.769,163.8603 714.259,167.1203 708.099,167.1203 C 707.079,167.1203 705.319,167.0003 704.499,166.8603 L 704.499,151.7803 z M 698.559,161.0603 C 698.559,164.6703 698.559,166.6603 698.359,170.0803 C 699.589,170.3303 704.759,171.0103 708.989,171.0103 C 721.199,171.0103 722.759,163.9103 722.759,160.4403 C 722.759,156.3603 720.179,153.0203 716.969,151.1603 C 722.759,149.6103 725.619,145.4503 725.619,140.8203 C 725.619,131.8703 718.259,127.3103 708.659,127.3103 C 705.449,127.3103 701.829,127.7103 698.559,128.4603 L 698.559,161.0603 z"
         style="fill:#25336d;fill-opacity:1;fill-rule:nonzero;stroke:none"
         id="path2438" /><path
         d="M 732.79,162.3623 C 732.79,165.0123 732.72,166.7823 732.58,169.5823 C 733.89,169.9123 738.65,170.4723 742.07,170.6123 C 743.91,170.6723 755.56,170.6123 759.11,170.6123 C 758.42,166.9123 757.27,165.4923 756.31,164.6123 C 755.35,164.2023 753.92,164.2023 750.79,164.2023 L 742.54,164.2023 L 742.54,151.7823 L 757.54,151.7823 C 756.65,145.8523 755.02,145.3723 752.23,145.3723 L 742.54,145.3723 C 742.54,138.9023 742.6,133.1723 742.74,128.1223 C 741.52,127.7823 737.63,127.5723 734.43,127.5723 C 733.26,127.5723 732.79,127.7823 732.79,128.9423 L 732.79,162.3623 z"
         style="fill:#4861b4;fill-opacity:1;fill-rule:nonzero;stroke:none"
         id="path2442" /><path
         d="M 773.903,150.6193 C 775.483,150.4093 779.083,150.6193 780.043,151.1093 C 780.923,151.5693 783.593,153.2893 783.593,157.7193 C 783.593,162.8993 780.453,165.3693 776.363,165.3693 C 775.553,165.3693 774.583,165.3693 773.903,165.2193 L 773.903,150.6193 z M 773.903,129.6093 C 773.903,128.2593 773.433,127.9893 772.273,127.8493 C 770.293,127.6493 765.793,127.5793 764.223,127.5793 C 764.353,130.3093 764.423,134.3293 764.423,140.0593 L 764.423,162.9693 C 764.423,166.3193 764.423,167.9493 764.293,169.7893 C 765.933,170.1993 773.493,171.0193 776.633,171.0193 C 788.373,171.0193 793.543,166.9993 793.543,158.6093 C 793.543,152.2593 788.223,149.1993 785.503,147.8993 C 787.053,146.5293 789.113,142.9093 791.293,139.0393 C 794.513,133.3193 796.343,130.5093 798.183,128.4593 L 798.183,128.1993 C 797.643,127.7793 794.703,127.4493 791.983,127.4493 C 789.113,127.4493 787.333,127.9893 785.503,130.3093 C 783.933,132.2193 782.433,135.3493 779.573,141.1493 C 777.723,144.8293 776.363,145.1093 774.853,145.1093 C 774.453,145.1093 774.243,145.1693 773.903,145.1093 L 773.903,129.6093 z"
         style="fill:#4861b4;fill-opacity:1;fill-rule:nonzero;stroke:none"
         id="path2446" /><path
         d="M 826.466,145.3073 C 823.676,153.4173 821.846,158.1973 821.096,160.3173 C 819.716,156.2873 817.876,150.9673 815.776,145.3073 L 826.466,145.3073 z M 813.726,138.9673 C 812.496,135.6973 810.586,130.6473 809.776,128.6173 C 809.496,127.9073 808.956,127.5773 807.716,127.5773 C 805.956,127.5773 802.476,127.9873 800.836,128.4573 L 800.786,128.7373 C 804.176,137.0573 814.476,162.1573 817.196,168.7573 L 816.786,169.9873 C 819.796,170.6073 824.356,170.8773 825.116,170.8773 C 825.726,170.8773 826.336,170.5373 826.736,169.5773 C 829.886,161.9473 834.726,149.1173 836.916,143.3273 C 839.696,136.0273 841.346,131.8073 842.766,128.6673 L 842.706,128.4073 C 841.206,127.9073 835.676,127.5773 833.976,127.5773 C 832.816,127.5773 832.196,127.9073 831.526,129.8273 C 830.366,133.2373 829.466,135.7573 828.326,138.9673 L 813.726,138.9673 z"
         style="fill:#4861b4;fill-opacity:1;fill-rule:nonzero;stroke:none"
         id="path2450" /><path
         d="M 883.551,169.7843 C 884.641,170.4743 890.091,170.8743 891.931,170.8743 C 892.681,170.8743 893.101,170.4743 893.361,168.6243 L 896.641,143.6643 C 897.591,136.5143 898.341,131.4643 898.891,128.1943 C 897.671,127.8543 892.551,127.5743 891.051,127.5743 C 890.091,127.5743 889.141,127.9043 888.991,129.4143 C 888.661,132.7543 888.241,136.7143 887.571,144.4143 L 886.141,159.9043 C 884.501,154.3143 881.091,143.8743 876.801,130.9043 C 876.321,129.4143 875.701,128.8643 874.001,128.5343 C 872.571,128.2543 870.811,127.9843 869.161,127.9843 C 867.731,132.7543 861.931,150.9643 859.201,159.7643 C 858.531,152.0643 856.941,137.1243 855.931,128.7443 C 855.811,127.9843 855.461,127.5743 854.641,127.5743 C 852.451,127.5743 848.701,127.5743 847.611,128.1943 C 848.781,135.5643 851.231,153.0143 853.831,168.7043 L 853.681,169.7843 C 855.591,170.2043 858.321,170.8743 862.131,170.8743 C 863.221,170.9443 863.621,170.4743 864.671,167.5343 L 873.581,142.3143 C 876.461,150.0843 880.671,161.9443 883.551,168.9143 L 883.551,169.7843 z"
         style="fill:#4861b4;fill-opacity:1;fill-rule:nonzero;stroke:none"
         id="path2454" /><path
         d="M 906.056,161.0633 C 906.056,164.3233 906.056,166.6633 905.846,169.6533 C 908.016,170.1233 911.506,170.5333 914.706,170.6133 L 930.926,170.6133 C 930.456,166.8633 929.506,165.5633 928.686,164.6133 C 927.586,164.1933 924.856,164.1933 921.796,164.1933 L 915.806,164.1933 L 915.806,153.1533 L 930.186,153.1533 C 929.506,147.9033 928.006,146.7333 925.556,146.7333 L 915.806,146.7333 L 915.806,134.4033 C 917.366,134.1233 918.936,133.9833 921.266,133.9833 C 923.846,133.9833 929.166,133.9833 932.706,134.2633 L 932.846,134.1233 C 932.176,130.7133 930.796,129.0833 928.956,127.9133 C 928.006,127.7133 924.726,127.5733 919.206,127.5733 C 913.086,127.5733 908.786,127.9133 907.146,128.2533 L 906.056,129.6133 L 906.056,161.0633 z"
         style="fill:#4861b4;fill-opacity:1;fill-rule:nonzero;stroke:none"
         id="path2458" /><path
         d="M 967.492,170.8733 C 968.382,170.8733 968.852,169.7233 969.252,168.4133 C 970.202,165.0133 973.212,153.0133 976.502,139.5133 C 981.452,157.1633 983.782,165.9633 985.222,170.8733 C 985.692,170.8733 988.142,170.8233 990.262,170.6133 C 992.432,170.3233 993.182,169.6533 992.582,167.6133 C 989.032,155.5333 984.402,142.3133 979.962,130.0333 C 979.562,128.9433 979.152,128.2533 978.392,127.9133 C 977.432,127.5133 973.692,127.1633 971.312,127.1633 C 969.602,133.8533 966.752,146.1933 964.202,156.0133 C 963.532,153.2833 958.892,136.5733 957.122,130.6533 C 956.722,129.2833 956.172,128.3233 955.142,127.9133 C 954.112,127.5733 951.002,127.1633 948.602,127.1633 C 944.502,140.1133 940.142,157.5233 935.372,169.2433 C 936.732,169.8633 941.432,170.8733 943.692,170.8733 C 945.262,170.8733 945.742,169.9833 946.822,166.1633 C 948.192,161.1133 950.842,151.3133 953.572,140.2533 C 954.332,143.8133 957.742,155.6733 960.602,166.7833 C 960.532,167.6133 960.322,168.7033 960.182,169.3133 C 962.912,170.3233 965.102,170.8733 967.422,170.8733 L 967.492,170.8733 z"
         style="fill:#4861b4;fill-opacity:1;fill-rule:nonzero;stroke:none"
         id="path2462" /><path
         d="M 1017.267,165.6293 C 1011.397,165.6293 1006.217,160.8593 1006.217,149.9493 C 1006.217,138.8293 1011.727,132.9693 1018.557,132.9693 C 1025.717,132.9693 1029.747,138.9593 1029.747,148.9093 C 1029.747,158.1993 1025.437,165.6293 1017.327,165.6293 L 1017.267,165.6293 z M 1018.147,171.6293 C 1032.327,171.6293 1040.037,161.6093 1040.037,149.6693 C 1040.037,137.3293 1032.257,126.9693 1017.807,126.9693 C 1002.057,126.9693 995.797,138.2893 995.797,148.9893 C 995.797,161.8793 1004.037,171.6293 1018.077,171.6293 L 1018.147,171.6293 z"
         style="fill:#4861b4;fill-opacity:1;fill-rule:nonzero;stroke:none"
         id="path2466" /><path
         d="M 1056.681,150.6193 C 1058.241,150.4093 1061.861,150.6193 1062.811,151.1093 C 1063.701,151.5693 1066.361,153.2893 1066.361,157.7193 C 1066.361,162.8993 1063.221,165.3693 1059.131,165.3693 C 1058.321,165.3693 1057.351,165.3693 1056.681,165.2193 L 1056.681,150.6193 z M 1056.681,129.6093 C 1056.681,128.2593 1056.201,127.9893 1055.041,127.8493 C 1053.061,127.6493 1048.561,127.5793 1046.991,127.5793 C 1047.131,130.3093 1047.191,134.3293 1047.191,140.0593 L 1047.191,162.9693 C 1047.191,166.3193 1047.191,167.9493 1047.061,169.7893 C 1048.691,170.1993 1056.261,171.0193 1059.401,171.0193 C 1071.141,171.0193 1076.311,166.9993 1076.311,158.6093 C 1076.311,152.2593 1070.991,149.1993 1068.271,147.8993 C 1069.831,146.5293 1071.881,142.9093 1074.061,139.0393 C 1077.271,133.3193 1079.101,130.5093 1080.961,128.4593 L 1080.961,128.1993 C 1080.411,127.7793 1077.471,127.4493 1074.741,127.4493 C 1071.881,127.4493 1070.101,127.9893 1068.271,130.3093 C 1066.691,132.2193 1065.201,135.3493 1062.331,141.1493 C 1060.481,144.8293 1059.131,145.1093 1057.631,145.1093 C 1057.231,145.1093 1057.021,145.1693 1056.681,145.1093 L 1056.681,129.6093 z"
         style="fill:#4861b4;fill-opacity:1;fill-rule:nonzero;stroke:none"
         id="path2470" /><path
         d="M 1085.583,161.6643 C 1085.583,166.2443 1085.523,169.0343 1085.383,170.3243 C 1086.733,170.5343 1092.203,170.8743 1093.763,170.8743 C 1095.143,170.8743 1095.343,170.1243 1095.343,167.1243 L 1095.343,149.8743 C 1100.243,155.8143 1107.823,165.2843 1111.903,171.1543 C 1113.283,171.1543 1115.183,171.0743 1117.283,170.6143 C 1120.013,170.1243 1119.943,169.0343 1118.583,167.0743 C 1116.003,163.5743 1109.513,155.9443 1105.093,150.5643 C 1108.093,145.5843 1117.223,133.3143 1121.243,128.7443 L 1121.243,128.4643 C 1120.623,128.0643 1117.083,127.4443 1113.533,127.4443 C 1111.093,127.4443 1109.843,128.0643 1107.543,130.9943 C 1104.403,134.9443 1096.213,146.6643 1095.343,148.6543 L 1095.343,136.5143 C 1095.343,131.7343 1095.473,129.4943 1095.543,128.1243 C 1094.313,127.7843 1088.983,127.5743 1087.223,127.5743 C 1086.133,127.5743 1085.583,127.7843 1085.583,128.9443 L 1085.583,161.6643 z"
         style="fill:#4861b4;fill-opacity:1;fill-rule:nonzero;stroke:none"
         id="path2474" /><path
         d="M 635.724,446.7033 C 639.964,477.8033 642.314,497.1233 642.794,507.9633 C 650.804,509.3833 663.524,511.2633 675.304,511.2633 C 680.024,511.2633 681.434,507.4933 678.134,483.9333 L 646.554,242.1633 C 655.514,239.8133 679.544,238.8733 703.114,238.8733 C 728.094,238.8733 753.064,239.3433 765.324,241.2333 L 765.794,240.2833 C 763.904,229.9133 754.954,218.6033 745.524,214.8333 C 737.984,212.9533 724.794,212.4833 692.744,212.4833 C 649.864,212.4833 623.464,214.8333 611.694,217.1933 C 609.324,219.5533 607.444,222.8433 605.554,225.6733 L 635.724,446.7033 z"
         style="fill:#25336d;fill-opacity:1;fill-rule:nonzero;stroke:none"
         id="path2478" /><path
         d="M 856.745,425.2243 C 860.985,425.2243 861.935,422.3943 860.055,407.7843 C 848.735,325.3143 842.605,279.0643 837.895,245.6043 C 836.475,236.6443 835.065,233.8143 831.295,231.4643 C 827.055,229.1043 811.035,225.3343 797.825,224.8543 C 802.075,253.1443 808.205,288.0843 813.855,330.9743 C 820.465,381.3943 823.765,407.7843 823.765,417.6843 C 829.885,420.0343 851.565,425.2243 856.275,425.2243 L 856.745,425.2243 z"
         style="fill:#25336d;fill-opacity:1;fill-rule:nonzero;stroke:none"
         id="path2482" /><path
         d="M 853.922,512.2743 C 863.342,512.2743 872.292,507.5643 872.772,492.0143 C 873.242,474.5743 859.572,467.0343 850.152,467.0343 C 840.722,467.0343 831.772,472.2243 831.292,486.8343 C 830.822,507.0943 846.382,512.2743 853.442,512.2743 L 853.922,512.2743 z"
         style="fill:#25336d;fill-opacity:1;fill-rule:nonzero;stroke:none"
         id="path2486" /><path
         d="M 891.618,391.0883 C 892.558,400.5183 898.208,415.5983 906.218,416.5383 C 911.408,416.5383 919.898,416.0683 928.378,416.5383 C 942.978,523.0483 981.158,538.1283 1013.688,538.1283 C 1027.818,538.1283 1039.598,532.9483 1043.838,528.6983 C 1044.318,520.6883 1039.598,507.9683 1031.118,508.4383 C 1027.348,509.8483 1020.278,511.7283 1014.618,511.7283 C 987.278,511.7283 974.088,485.3483 964.668,416.5383 C 989.168,416.5383 1007.558,416.0683 1017.448,417.9583 C 1014.618,407.1183 1010.848,399.0983 1003.778,394.8583 C 998.598,391.5583 986.808,391.0883 961.368,391.0883 C 952.878,323.2283 953.198,345.0283 946.138,298.8483 C 932.458,206.4783 899.948,181.5083 860.358,181.5083 C 847.638,181.5083 831.618,186.2083 826.898,191.3983 C 818.888,198.9383 823.128,213.5483 828.778,217.3183 C 836.798,213.0783 847.638,209.2983 857.058,209.2983 C 889.568,209.2983 901.828,236.6383 912.668,312.9883 C 920.678,366.7083 920.368,348.6783 925.548,391.0883 L 891.618,391.0883 z"
         style="fill:#25336d;fill-opacity:1;fill-rule:nonzero;stroke:none"
         id="path2490" /><path
         d="M 1124.894,267.6163 C 1129.134,258.1963 1126.304,243.1163 1117.824,234.1563 C 1104.624,220.0163 1086.244,209.6563 1063.164,209.6563 C 1037.704,209.6563 1022.624,226.6163 1030.164,279.8663 C 1034.884,312.8563 1041.014,346.7863 1048.074,391.0863 L 1016.494,391.0863 C 1016.494,400.0463 1022.624,416.5463 1031.584,416.5463 L 1052.314,416.5463 C 1058.444,448.1163 1064.104,465.0863 1069.274,469.3263 C 1075.884,474.5063 1089.544,478.7563 1098.974,478.7563 C 1095.674,459.4263 1091.904,440.1063 1088.134,416.5463 C 1119.714,416.5463 1135.264,416.5463 1147.524,418.4263 C 1145.154,407.5863 1140.444,399.0963 1133.854,394.8663 C 1128.194,391.5663 1114.994,391.0863 1083.424,391.0863 C 1076.354,348.6763 1068.344,293.0663 1065.984,276.1063 C 1062.684,250.1763 1066.934,239.8063 1078.714,239.8063 C 1092.374,239.8063 1108.864,250.1763 1123.954,267.6163 L 1124.894,267.6163 z"
         style="fill:#25336d;fill-opacity:1;fill-rule:nonzero;stroke:none"
         id="path2494" /><path
         d="M 488.039,319.4473 C 488.039,294.8473 468.089,266.4873 443.499,256.1073 L 280.199,187.1573 C 255.609,176.7673 235.669,188.2873 235.669,212.8873 L 235.669,376.1973 C 235.669,400.7873 255.609,429.1373 280.199,439.5273 L 443.499,508.4773 C 468.089,518.8573 488.039,507.3373 488.039,482.7373 L 488.039,319.4473 z"
         style="fill:#4861b4;fill-opacity:1;fill-rule:nonzero;stroke:none"
         id="path2498" /><path
         d="M 522.936,458.0263 L 522.936,295.2763 C 522.936,270.6863 502.996,242.3263 478.396,231.9463 L 315.096,162.9963 C 306.656,159.4263 298.776,158.4863 292.046,159.7363 L 292.046,159.1863 C 292.046,134.6063 311.986,123.0763 336.576,133.4563 L 499.886,202.4063 C 524.476,212.7963 544.416,241.1463 544.416,265.7463 L 544.416,429.0463 C 544.416,445.1963 535.796,455.6463 522.936,458.0263"
         style="fill:#25336d;fill-opacity:1;fill-rule:nonzero;stroke:none"
         id="path2502" /><path
         d="M 460.871,196.2103 C 439.841,196.2103 422.011,203.6903 407.361,218.6903 C 392.721,233.6803 385.401,251.7003 385.401,272.7503 L 385.401,383.6803 L 425.071,400.4303 L 353.921,460.7503 L 289.191,343.0703 L 331.591,360.9703 L 331.591,272.8003 C 331.591,237.5103 344.301,207.4703 369.701,182.7103 C 379.141,173.5203 389.261,166.0403 400.061,160.2603 L 485.201,196.2103 L 460.871,196.2103 z"
         style="fill:#ffffff;fill-opacity:1;fill-rule:nonzero;stroke:none"
         id="path2506" /></g></g></svg>